<svg viewBox="0 0 300 200" xmlns="http://www.w3.org/2000/svg">
  <!-- Background -->
  <rect width="300" height="200" rx="10" fill="#f4f7fa" />
  
  <!-- Decorative Elements -->
  <circle cx="50" cy="50" r="30" fill="#2EB386" opacity="0.1" />
  <circle cx="250" cy="150" r="40" fill="#FAA22B" opacity="0.1" />
  
  <!-- Main Content - Monthly Contributions -->
  <rect x="40" y="40" width="220" height="120" rx="8" fill="white" stroke="#E2E8F0" stroke-width="1.5" />
  
  <!-- Header -->
  <rect x="40" y="40" width="220" height="30" rx="8" fill="#F9FAFB" stroke="#E2E8F0" stroke-width="1.5" />
  
  <!-- Header Elements -->
  <circle cx="55" cy="55" r="5" fill="#2EB386" />
  <rect x="70" y="52" width="80" height="6" rx="3" fill="#718096" />
  <rect x="200" y="52" width="40" height="6" rx="3" fill="#2EB386" />
  
  <!-- Calendar Icon -->
  <g transform="translate(80, 85) scale(0.8)">
    <rect x="0" y="0" width="20" height="18" rx="2" fill="#2EB386" />
    <rect x="0" y="0" width="20" height="4" rx="2" fill="#FAA22B" />
    <rect x="2" y="6" width="3" height="3" rx="1" fill="white" />
    <rect x="7" y="6" width="3" height="3" rx="1" fill="white" />
    <rect x="12" y="6" width="3" height="3" rx="1" fill="white" />
    <rect x="17" y="6" width="3" height="3" rx="1" fill="white" />
    <rect x="2" y="11" width="3" height="3" rx="1" fill="white" />
    <rect x="7" y="11" width="3" height="3" rx="1" fill="white" />
    <rect x="12" y="11" width="3" height="3" rx="1" fill="white" />
    <rect x="17" y="11" width="3" height="3" rx="1" fill="white" />
  </g>
  
  <!-- Association Icon -->
  <g transform="translate(200, 85) scale(0.6)">
    <path d="M12 2C6.48 2 2 6.48 2 12s4.48 10 10 10 10-4.48 10-10S17.52 2 12 2zm-2 15l-5-5 1.41-1.41L10 14.17l7.59-7.59L19 8l-9 9z" fill="#2EB386" />
  </g>
  
  <!-- Recurring Arrow -->
  <g transform="translate(220, 100) scale(0.6)">
    <path d="M12 2C6.48 2 2 6.48 2 12s4.48 10 10 10 10-4.48 10-10S17.52 2 12 2zm-2 15l-5-5 1.41-1.41L10 14.17l7.59-7.59L19 8l-9 9z" fill="#FAA22B" />
    <path d="M12 6v6l4 2" stroke="white" stroke-width="2" fill="none" stroke-linecap="round" stroke-linejoin="round" />
  </g>
  
  <!-- Monthly Contribution Chart (at bottom) -->
  <rect x="50" y="130" width="180" height="20" rx="4" fill="#F8FAFC" stroke="#E2E8F0" stroke-width="1" />
  
  <!-- Chart Bars -->
  <rect x="60" y="135" width="15" height="10" rx="2" fill="#2EB386" />
  <rect x="85" y="135" width="15" height="10" rx="2" fill="#FAA22B" />
  <rect x="110" y="135" width="15" height="10" rx="2" fill="#FF9500" />
  <rect x="135" y="135" width="15" height="10" rx="2" fill="#2EB386" />
  <rect x="160" y="135" width="15" height="10" rx="2" fill="#FAA22B" />
  <rect x="185" y="135" width="15" height="10" rx="2" fill="#FF9500" />
</svg>
