<svg viewBox="0 0 300 200" xmlns="http://www.w3.org/2000/svg">
  <!-- Background -->
  <rect width="300" height="200" rx="10" fill="#f4f7fa" />
  
  <!-- Decorative Elements -->
  <circle cx="50" cy="50" r="30" fill="#2EB386" opacity="0.1" />
  <circle cx="250" cy="150" r="40" fill="#FAA22B" opacity="0.1" />
  
  <!-- Main Content - Donations Dashboard -->
  <rect x="40" y="40" width="220" height="120" rx="8" fill="white" stroke="#E2E8F0" stroke-width="1.5" />
  
  <!-- Header -->
  <rect x="40" y="40" width="220" height="30" rx="8" fill="#F9FAFB" stroke="#E2E8F0" stroke-width="1.5" />
  
  <!-- Header Elements -->
  <circle cx="55" cy="55" r="5" fill="#2EB386" />
  <rect x="70" y="52" width="80" height="6" rx="3" fill="#718096" />
  <rect x="200" y="52" width="40" height="6" rx="3" fill="#2EB386" />
  
  <!-- Donation Stats -->
  <rect x="50" y="80" width="60" height="10" rx="3" fill="#4A5568" />
  <rect x="50" y="95" width="180" height="6" rx="3" fill="#A0AEC0" />
  
  <!-- Progress Bar -->
  <rect x="50" y="110" width="180" height="8" rx="4" fill="#E2E8F0" />
  <rect x="50" y="110" width="120" height="8" rx="4" fill="#2EB386" />
  
  <!-- Donation Buttons -->
  <rect x="50" y="130" width="50" height="20" rx="4" fill="#FAA22B" />
  <rect x="110" y="130" width="50" height="20" rx="4" fill="white" stroke="#FAA22B" stroke-width="1.5" />
  <rect x="170" y="130" width="50" height="20" rx="4" fill="white" stroke="#2EB386" stroke-width="1.5" />
  
  <!-- Heart Icon -->
  <g transform="translate(240, 120) scale(0.6)">
    <path d="M12 21.35l-1.45-1.32C5.4 15.36 2 12.28 2 8.5 2 5.42 4.42 3 7.5 3c1.74 0 3.41.81 4.5 2.09C13.09 3.81 14.76 3 16.5 3 19.58 3 22 5.42 22 8.5c0 3.78-3.4 6.86-8.55 11.54L12 21.35z" fill="#FF6B6B" stroke="#E53E3E" stroke-width="1" stroke-linejoin="round" />
  </g>
</svg>
