<svg viewBox="0 0 300 200" xmlns="http://www.w3.org/2000/svg">
  <!-- Background -->
  <rect width="300" height="200" rx="10" fill="#f4f7fa" />
  
  <!-- Decorative Elements -->
  <circle cx="50" cy="50" r="30" fill="#2EB386" opacity="0.1" />
  <circle cx="250" cy="150" r="40" fill="#FAA22B" opacity="0.1" />
  
  <!-- Main Content - Community Collection -->
  <rect x="40" y="40" width="220" height="120" rx="8" fill="white" stroke="#E2E8F0" stroke-width="1.5" />
  
  <!-- Header -->
  <rect x="40" y="40" width="220" height="30" rx="8" fill="#F9FAFB" stroke="#E2E8F0" stroke-width="1.5" />
  
  <!-- Header Elements -->
  <circle cx="55" cy="55" r="5" fill="#2EB386" />
  <rect x="70" y="52" width="80" height="6" rx="3" fill="#718096" />
  <rect x="200" y="52" width="40" height="6" rx="3" fill="#2EB386" />
  
  <!-- Group of People (simplified) -->
  <g transform="translate(90, 85)">
    <!-- Person 1 -->
    <circle cx="0" cy="0" r="10" fill="#2EB386" />
    <rect x="-5" y="10" width="10" height="15" rx="5" fill="#2EB386" />
    
    <!-- Person 2 -->
    <circle cx="25" cy="0" r="10" fill="#FAA22B" />
    <rect x="20" y="10" width="10" height="15" rx="5" fill="#FAA22B" />
    
    <!-- Person 3 -->
    <circle cx="50" cy="0" r="10" fill="#FF9500" />
    <rect x="45" y="10" width="10" height="15" rx="5" fill="#FF9500" />
    
    <!-- Person 4 -->
    <circle cx="75" cy="0" r="10" fill="#2EB386" />
    <rect x="70" y="10" width="10" height="15" rx="5" fill="#2EB386" />
    
    <!-- Person 5 -->
    <circle cx="100" cy="0" r="10" fill="#FAA22B" />
    <rect x="95" y="10" width="10" height="15" rx="5" fill="#FAA22B" />
  </g>
  
  <!-- Simple Collection Progress (at bottom) -->
  <rect x="50" y="130" width="180" height="20" rx="4" fill="#F8FAFC" stroke="#E2E8F0" stroke-width="1" />
  
  <!-- Progress Bar -->
  <rect x="55" y="135" width="140" height="10" rx="5" fill="#E2E8F0" />
  <rect x="55" y="135" width="100" height="10" rx="5" fill="#2EB386" />
</svg>
