<svg width="1212" height="423" viewBox="0 0 1212 423" fill="none" xmlns="http://www.w3.org/2000/svg">
<path d="M910.556 222.872C907.892 215.977 905.21 209.575 902.864 203.052C900.411 196.234 903.251 192.311 910.504 192.235C917.847 192.158 925.198 192.401 932.533 192.147C937.507 191.975 940.423 194.313 942.027 198.637C953.802 230.375 965.528 262.131 977.284 293.876C978.547 297.286 979.904 300.661 981.217 304.053C981.744 304.013 982.271 303.974 982.798 303.935C984.116 300.309 985.58 296.728 986.728 293.048C996.395 262.062 1006.04 231.071 1015.59 200.048C1017.38 194.26 1020.82 191.72 1026.99 192.024C1034.31 192.386 1041.67 192.049 1049.01 192.106C1055.45 192.155 1058.42 194.667 1057.95 201.086C1057.59 206.117 1056.22 211.23 1054.42 215.975C1044.4 242.443 1034.21 268.847 1023.9 295.203C1012.14 325.246 1000.09 355.174 988.375 385.232C979.15 408.898 960.555 419.164 936.656 421.923C930.368 422.649 923.992 422.6 917.66 422.975C912.578 423.277 909.366 420.804 909.197 415.926C908.91 407.671 909.111 399.379 909.569 391.128C909.822 386.584 912.381 385.14 917.339 385.79C936.708 388.332 953.419 378.414 959.559 362.19C962.361 354.788 959.681 348.552 957.253 342.201C946.434 313.899 935.418 285.671 924.392 257.448C919.93 246.028 915.26 234.689 910.556 222.872Z" fill="#FF9500"/>
<path d="M896.842 329.173C896.899 335.3 897.009 340.834 896.999 346.368C896.989 352.803 894.615 355.128 887.938 355.189C881.208 355.251 874.476 355.25 867.747 355.156C860.154 355.05 857.466 352.388 857.191 344.819C857.093 342.141 857.175 339.458 857.175 335.719C851.203 340.813 846.714 345.567 841.381 349.026C821.173 362.135 799.756 363.677 778.338 352.693C762.517 344.578 755.244 330.087 755.005 312.787C754.761 295.12 762.874 281.285 777.974 271.845C792.472 262.782 808.881 260.159 825.455 258.429C833.909 257.546 842.426 257.131 850.926 256.876C854.604 256.766 855.687 255.48 855.546 251.914C855.057 239.571 847.361 229.867 835.32 227.466C815.535 223.522 798.15 228.85 782.895 241.715C775.759 247.732 771.436 246.969 767.029 238.829C760.097 226.024 763.753 211.499 777.381 204.345C787.387 199.093 798.335 194.916 809.355 192.491C821.605 189.795 834.25 189.157 847.067 191.222C873.21 195.435 892.632 214.222 895.04 240.889C896.6 258.166 896.19 275.625 896.526 293.005C896.754 304.861 896.745 316.722 896.842 329.173ZM834.653 284.176C829.528 284.415 824.392 284.521 819.279 284.917C803.974 286.102 795.821 296.108 797.568 311.292C798.298 317.633 801.446 322.202 807.661 323.748C831.26 329.617 857.462 318.446 855.788 288.349C855.606 285.071 854.517 283.712 851.221 283.848C846.093 284.059 840.957 284.064 834.653 284.176Z" fill="#2EB386"/>
<path d="M457.745 352.866C419.971 336.116 400.808 296.983 408.787 255.671C415.946 218.608 449.302 187.906 490.577 188C538.506 188.11 578.691 225.48 576.945 276.26C575.562 316.483 548.637 350.381 509.773 358.124C492.309 361.603 474.806 360.46 457.745 352.866ZM466.599 232.57C448.671 245.396 444.071 263.494 447.499 284.071C451.642 308.942 475.719 326.008 499.405 321.882C539.125 314.962 545.657 266.869 527.497 242.898C513.682 224.663 485.821 220.202 466.599 232.57Z" fill="#2EB386"/>
<path d="M613.561 192.689C618.097 192.683 622.05 192.609 626.001 192.681C633.357 192.814 635.758 195.352 635.805 202.9C635.819 205.207 635.807 207.513 635.807 211.094C640.397 207.204 643.961 203.973 647.739 201.017C671.2 182.66 708.031 185.702 726.719 207.627C736.071 218.6 740.364 231.853 740.607 245.895C741.191 279.511 740.951 313.141 740.953 346.765C740.953 352.222 738.023 354.868 732.315 354.934C725.005 355.018 717.693 354.943 710.383 354.953C702.339 354.965 699.687 352.465 699.668 344.434C699.605 318.523 699.798 292.61 699.479 266.702C699.393 259.681 698.546 252.498 696.812 245.706C694.03 234.815 686.033 228.993 675.172 227.399C670.535 226.718 665.692 226.602 661.031 227.085C646.64 228.574 636.707 238.193 636.27 252.693C635.531 277.193 635.851 301.725 635.729 326.244C635.696 332.969 635.844 339.699 635.599 346.416C635.371 352.637 632.928 354.862 626.724 354.938C619.611 355.025 612.497 355.002 605.384 354.979C597.552 354.953 595.078 352.495 595.072 344.708C595.037 298.425 595.003 252.143 595 205.86C594.999 193.852 596.241 192.666 608.233 192.679C609.814 192.681 611.395 192.683 613.561 192.689Z" fill="#2EB386"/>
<path d="M1061.14 345.595L1111.42 212L1173.76 349.846L1115.4 327.884L1058 353.945L1061.14 345.595Z" stroke="#FD9706" stroke-width="30" stroke-linecap="square"/>
<path d="M49.3691 156C51.3375 179.489 56.8135 203.088 62.3477 226.698C63.2021 230.344 64.6865 231.157 68.1338 231.121C95.7894 230.837 123.476 230.713 151.158 230.563C162.389 230.502 162.416 230.531 161.406 219.583C161.052 215.747 161.728 212.485 165.283 210.873C168.787 209.285 171.827 211.68 174.843 213.784C175.66 214.355 176.449 214.975 177.223 215.607C192.32 227.929 207.413 240.258 222.509 252.583C229.426 258.231 230.021 261.013 224.684 266.185C215.719 274.872 206.512 283.324 197.42 291.889C194.691 294.459 192.192 297.277 189.263 299.624C183.318 304.388 176.155 301.535 173.481 293.405C172.605 290.739 171.788 287.954 171.658 285.316C171.44 280.864 169.646 279.631 165.14 279.678C123.28 280.114 81.3762 280.326 39.4922 280.638C32.0057 280.694 28.9494 278.372 27.0195 270.9C21.7071 250.329 15.9387 229.778 11.1826 209.182C7.07955 191.413 3.47295 173.654 1.42969 156H49.3691ZM98.3691 0.632059C127.807 -0.940944 155.852 7.70234 181.94 27.1584C203.504 43.2399 220.725 62.4595 231.248 86.4084C235.415 95.892 233.458 99.5962 223.456 100.17C214.08 100.708 204.505 100.529 195.277 101.541C187.809 102.361 184.37 100.919 178.72 92.6545C177.614 91.0379 176.74 89.3011 175.69 87.6526C166.28 72.8754 153.865 61.5712 137.186 55.7356C107.772 45.4447 82.5137 54.6325 66.8604 74.8557C57.8585 86.4858 52.8437 100.063 50.417 115H0.00585938C0.0616154 114.066 0.123663 113.131 0.193359 112.197C3.16588 72.378 17.1441 39.1806 49.5566 17.1907C63.7064 7.59089 79.8919 1.61942 98.3691 0.632059Z" fill="#FAA22B"/>
<path d="M383.048 277C379.383 291.759 372.178 305.358 362.086 317.908C350.007 332.929 333.522 343.334 315.055 351.012C292.861 360.239 268.681 364.404 243.465 365.892C203.916 368.225 163.447 365.08 123.271 363.64C113.657 363.295 107.69 359.023 104.075 349.679C101.781 343.747 100.936 337.429 100.1 331.315C98.978 323.105 103.252 318.268 111.581 318.231C142.607 318.096 173.664 318.123 204.717 318.126C234.406 318.129 263.417 316.193 289.123 304.661C303.37 298.27 315.086 289.441 322.997 277H383.048ZM146.649 100.782C151.611 98.0118 157.219 100.485 159.45 106.425C160.389 108.925 161.003 111.513 161.515 114.064C162.747 120.206 162.698 120.265 169.049 120.234C182.054 120.171 195.047 120.041 208.37 119.936C218.331 119.903 227.972 119.901 237.601 119.835C269.968 119.612 300.773 128.155 329.302 149.882C352.916 167.865 369.932 189.952 379.08 216.511C381.017 222.136 382.52 227.631 383.609 233H331.061C327.633 215.943 317.5 199.199 302.173 187.418C287.627 176.238 271.326 170.424 254.629 169.916C228.641 169.125 202.849 169.611 176.964 169.498C174.207 169.486 173.335 170.646 173.723 173.265C174.234 176.715 174.977 180.257 174.806 183.581C174.482 189.841 168.721 191.969 163.408 187.751C145.798 173.771 128.296 159.648 110.846 145.465C106.885 142.246 106.474 138.823 109.119 135.577C110.255 134.183 111.504 132.871 112.817 131.637C122.426 122.608 132.047 113.592 141.71 104.617C143.228 103.207 144.82 101.804 146.649 100.782Z" fill="#2EB386"/>
</svg>
